<?xml version="1.0" encoding="UTF-8"?>
<!-- Created with Inkscape (http://www.inkscape.org/) -->
<svg width="32" height="32" version="1.1" viewBox="0 0 8.4667 8.4667" xmlns="http://www.w3.org/2000/svg">
 <g>
  <rect x="2.2252e-7" y="2.2252e-7" width="8.4667" height="8.4667" fill="#1b1a2c" stroke-width=".41552"/>
  <g transform="translate(-.023281 -.092901)" fill="#ebebfa">
   <path d="m0.13737 6.2516v-5.9641h2.5816q0.8009 0 1.3803 0.26412 0.57937 0.2556 0.89462 0.74125 0.31525 0.48565 0.31525 1.1587 0 0.66457-0.31525 1.1502t-0.89462 0.74977q-0.57937 0.2556-1.3803 0.2556h-1.8148l0.61345-0.62197v2.2664zm1.3803-2.113-0.61345-0.65605h1.7381q0.63901 0 0.95426-0.27265t0.31525-0.75829q0-0.49417-0.31525-0.76681t-0.95426-0.27265h-1.7381l0.61345-0.65605z"/>
   <path d="m5.8454 8.3649q-0.71569 0-1.3717-0.18744-0.65605-0.19596-1.0565-0.50269l0.46861-1.0395q0.38341 0.27265 0.90314 0.45157 0.52825 0.1704 1.065 0.1704 0.40897 0 0.65605-0.076681 0.2556-0.085202 0.37489-0.23004 0.11928-0.14484 0.11928-0.33229 0-0.23856-0.18744-0.37489-0.18744-0.14484-0.49417-0.23004-0.30673-0.093722-0.68161-0.1704-0.36637-0.085202-0.74125-0.20448-0.36637-0.11928-0.67309-0.30673-0.30673-0.18744-0.50269-0.49417-0.18744-0.30673-0.18744-0.78385 0-0.51121 0.27265-0.9287 0.28117-0.42601 0.83498-0.67309 0.56233-0.2556 1.4058-0.2556 0.56233 0 1.1076 0.13632 0.54529 0.1278 0.96278 0.39193l-0.42601 1.048q-0.41749-0.23856-0.83498-0.34933-0.41749-0.11928-0.81794-0.11928t-0.65605 0.093722-0.36637 0.24708q-0.11076 0.14484-0.11076 0.34081 0 0.23004 0.18744 0.37489 0.18744 0.13632 0.49417 0.22152 0.30673 0.085202 0.67309 0.1704 0.37489 0.085202 0.74125 0.19596 0.37489 0.11076 0.68161 0.29821 0.30672 0.18744 0.49417 0.49417 0.19596 0.30673 0.19596 0.77533 0 0.50269-0.28116 0.92018-0.28116 0.41749-0.8435 0.67309-0.55381 0.2556-1.4058 0.2556z"/>
  </g>
 </g>
</svg>
